<?xml version="1.0" encoding="UTF-8"?>
<svg width="90" height="71.216" version="1.1" viewBox="0 0 90 71.2155" xmlns="http://www.w3.org/2000/svg" xmlns:cc="http://creativecommons.org/ns#" xmlns:dc="http://purl.org/dc/elements/1.1/" xmlns:rdf="http://www.w3.org/1999/02/22-rdf-syntax-ns#">
<metadata>
<rdf:RDF>
<cc:Work rdf:about="">
<dc:format>image/svg+xml</dc:format>
<dc:type rdf:resource="http://purl.org/dc/dcmitype/StillImage"/>
<dc:title>tool-1 copy 4</dc:title>
</cc:Work>
</rdf:RDF>
</metadata>
<title>tool-1 copy 4</title>
<desc>Created with Sketch.</desc>
<g transform="translate(-5,-14)" fill="none" fill-rule="evenodd" stroke="#000">
<path d="m95 36.861v3.1925c0 17.169-12.029 31.616-28.508 34.936-1.8559 0.37352-3.6362-0.92262-3.8278-2.8062-0.1692-1.6601 0.97796-3.1307 2.6136-3.4638 12.459-2.538 21.807-12.831 23.167-25.474h-10.637c-13.595 0-24.615 11.02-24.615 24.615v14.162c0 1.7633-1.4292 3.1925-3.1925 3.1925s-3.1925-1.4292-3.1925-3.1925v-37.024c0-13.594-11.02-24.614-24.615-24.614h-10.635c1.4951 13.717 12.509 24.617 26.277 25.938 1.609 0.15324 2.8147 1.5505 2.8147 3.1669 0 1.9048-1.6569 3.3649-3.5511 3.1765-17.997-1.7878-32.098-17.016-32.098-35.474v-3.1925h17.193c17.041 0 30.911 13.821 30.996 30.842h0.0043v4.2055c5.6698-7.4012 14.592-12.187 24.615-12.187z" fill="#000" stroke="#000"/>
</g>
</svg>
