<?xml version="1.0" encoding="UTF-8" standalone="no"?>
<!-- Created with Inkscape (http://www.inkscape.org/) -->
<svg id="svg2" xmlns:rdf="http://www.w3.org/1999/02/22-rdf-syntax-ns#" xmlns="http://www.w3.org/2000/svg" xml:space="preserve" height="33" viewBox="0 0 31 33" width="31" version="1.1" xmlns:cc="http://creativecommons.org/ns#" xmlns:dc="http://purl.org/dc/elements/1.1/"><metadata id="metadata8"><rdf:RDF><cc:Work rdf:about=""><dc:format>image/svg+xml</dc:format><dc:type rdf:resource="http://purl.org/dc/dcmitype/StillImage"/><dc:title/></cc:Work></rdf:RDF></metadata><defs id="defs6"><clipPath id="clipPath16" clipPathUnits="userSpaceOnUse"><path id="path18" d="m0 44h42.667v-44h-42.667v44z"/></clipPath></defs><g id="g10" transform="matrix(1.25,0,0,-1.25,0,33)"><g id="g12" transform="matrix(.59449 0 0 .59449 -.19558 -.13008)" stroke="#666" fill="#666"><g id="g14" clip-path="url(#clipPath16)" stroke="#666" fill="#666"><g id="g20" transform="translate(1.5775,1.9527)"><path id="path22" d="m0 0s0.241 0.525 0.689 1.427c0.454 0.892 1.154 2.186 2.093 3.641 0.454 0.744 0.997 1.512 1.57 2.328 0.595 0.798 1.2 1.662 1.902 2.492 0.686 0.843 1.399 1.713 2.173 2.552 0.773 0.84 1.568 1.685 2.386 2.506 0.828 0.813 1.676 1.602 2.524 2.365 0.837 0.774 1.719 1.471 2.556 2.161 0.844 0.681 1.678 1.318 2.49 1.893 0.795 0.595 1.579 1.115 2.306 1.588 1.448 0.952 2.696 1.68 3.588 2.156 0.891 0.48 1.408 0.737 1.408 0.737l0.213-0.315s-0.424-0.393-1.181-1.053c-0.752-0.657-1.827-1.597-3.117-2.724-1.284-1.126-2.762-2.454-4.328-3.886-0.773-0.727-1.571-1.477-2.383-2.24-0.81-0.762-1.617-1.552-2.408-2.359-0.81-0.786-1.597-1.596-2.363-2.401-0.757-0.813-1.528-1.59-2.232-2.382-0.709-0.788-1.394-1.549-2.044-2.272-0.62-0.747-1.252-1.421-1.789-2.08-1.103-1.304-1.994-2.389-2.632-3.175-0.632-0.785-1.007-1.224-1.007-1.224l-0.414 0.265z" stroke="#666" fill="#666"/></g><g id="g24" transform="translate(6.5527 16.84)"><path id="path26" d="m0 0s0.019 0.734 0.053 2.019c0.05 1.287 0.1 3.13 0.382 5.347 0.286 2.206 0.802 4.828 2.081 7.425 0.627 1.277 1.475 2.561 2.473 3.708 0.999 1.153 2.167 2.188 3.427 3.088 1.261 0.9 2.618 1.662 4.013 2.281 1.375 0.609 2.876 1.092 4.228 1.419 1.451 0.348 2.821 0.556 4.163 0.666 1.334 0.108 2.606 0.117 3.777 0.045 2.343-0.138 4.279-0.542 5.609-0.902 0.663-0.189 1.184-0.341 1.533-0.466 0.352-0.117 0.539-0.18 0.539-0.18l-1.454-3.685s-0.156 0.065-0.449 0.187c-0.291 0.13-0.727 0.291-1.285 0.497-1.12 0.393-2.766 0.864-4.805 1.136-1.018 0.139-2.135 0.212-3.318 0.203-1.175-0.008-2.452-0.111-3.694-0.315-1.341-0.224-2.58-0.531-3.887-0.992-1.282-0.46-2.542-1.052-3.726-1.772-2.383-1.434-4.39-3.412-5.713-5.688-1.331-2.263-2.018-4.713-2.449-6.83-0.429-2.126-0.614-3.948-0.756-5.219-0.127-1.276-0.199-2.005-0.199-2.005l-0.543 0.033z" stroke="#666" fill="#666"/></g><g id="g28" transform="translate(15.775 11.067)"><path id="path30" d="m0 0s0.601-0.077 1.653-0.21c1.045-0.109 2.544-0.244 4.333-0.21 1.786 0.032 3.871 0.234 6.006 0.845 0.283 0.084 0.51 0.143 0.796 0.245 0.283 0.094 0.562 0.189 0.812 0.292 0.515 0.191 1.055 0.434 1.572 0.693 1.041 0.52 2.052 1.148 2.985 1.881 1.868 1.462 3.403 3.346 4.404 5.349 1.008 2.004 1.501 4.094 1.681 5.896 0.191 1.808 0.059 3.336-0.086 4.388-0.159 1.053-0.316 1.644-0.316 1.644l0.45 0.122s0.041-0.151 0.118-0.434c0.083-0.282 0.178-0.703 0.29-1.24 0.202-1.076 0.417-2.647 0.312-4.539-0.05-0.944-0.173-1.967-0.408-3.031-0.231-1.058-0.584-2.181-1.064-3.266-0.964-2.194-2.519-4.312-4.466-5.996-0.972-0.843-2.035-1.58-3.141-2.201-0.557-0.313-1.106-0.595-1.696-0.849-0.297-0.136-0.573-0.246-0.845-0.351-0.263-0.11-0.594-0.22-0.863-0.313-2.293-0.779-4.539-1.107-6.45-1.235-1.916-0.131-3.508-0.064-4.617-0.004-1.132 0.072-1.727 0.134-1.727 0.134l0.267 2.39z" stroke="#666" fill="#666"/></g></g></g></g></svg>
