<svg version="1" xmlns="http://www.w3.org/2000/svg" width="960" height="960" viewBox="0 0 720.000000 720.000000"><path d="M.3 115.2l.4 40.3L3.9 168c3.2 12.6 8.3 29 10.6 34.5.8 1.6 2.3 5.4 3.5 8.4 3.4 8.6 11.7 25.5 17.2 34.9 4.6 7.8 16.4 25.9 17.8 27.2.3.3 3.2 3.9 6.5 8 16.9 21.3 38.9 41.9 59.5 56.1 3.6 2.4 6.7 4.7 7 5 .9 1 18 10.9 18.9 10.9.5 0 1.1.4 1.3.8.4 1 18.1 9.8 19.1 9.4.4-.1.7.2.7.8 0 .5.9 1 2 1s2 .5 2 1.2c0 .6.3.9.6.6.3-.4 3 .4 5.9 1.8 5 2.2 28.1 10.2 31.5 10.9.8.2 3.3.8 5.5 1.4 2.2.5 5.6 1.3 7.5 1.6 1.9.3 4.9 1 6.5 1.5 1.7.5 4.8 1.1 7 1.5 2.2.3 5.1.7 6.5 1 10.1 1.8 20.3 2.3 25 1.3 7.9-1.8 15.4-7.5 19.5-14.9 2.7-4.8 3-6.3 3-13.9 0-7-.4-9.3-2.4-12.9-5.2-9.9-13.4-15.3-25.1-16.6-3.6-.4-9.9-1.3-14-2.1-4.1-.7-8.8-1.6-10.5-1.9-12.4-2.1-39.1-11.5-52.5-18.3-9.5-4.9-16.6-8.7-17-9.3-.3-.3-1.9-1.3-3.7-2.2-1.7-.9-3.7-2.2-4.5-2.9-.7-.7-2.5-1.9-4-2.7-1.5-.8-3.6-2.2-4.5-3-1-.9-2.7-2.3-3.9-3.1-7.3-5.1-34.3-30.9-38.9-37.2-.5-.7-2.6-3.3-4.6-5.8-19.4-24.5-36.4-61.3-42.9-93.5-.6-3.3-1.4-7.1-1.7-8.5-.3-1.4-.7-4-.9-5.8l-.3-3.3 50.7.4c27.9.3 51.7.7 52.9 1 1.1.3 4.3.9 7 1.2 7.5 1.1 20.9 4.3 28.7 6.9 11 3.8 17.5 6.2 18.3 6.9.3.4 1.3.7 2 .7.8 0 1.9.4 2.6 1 .7.5 4.8 2.8 9.2 5.1 6.9 3.5 25 15.1 26.5 16.8.3.3 2.8 2.4 5.5 4.6 8.7 6.8 23.6 22.6 31.2 33 4 5.5 7.7 10.4 8.1 11 1.5 1.9 6.6 11 6.5 11.5-.1.3.4 1.2 1.1 2 1 1.3 5.6 10.8 10.2 21.5 1.6 3.8 7.2 22.1 7.8 25.8.3 1.5.7 3.5 1 4.5.9 3.1 2.1 11.3 3.2 21.7.3 3.3.7 76.4.8 162.5.2 126.8.4 157.3 1.5 160.5 1.6 4.8 5.2 10 9.5 13.7 3.1 2.7 3.2 2.7 18.8 2.8h15.7l4.8-4.9c9-9.2 8.7-6.3 8.9-79.6.1-55.9.6-79.5 1.9-81.5.2-.4.6-2.8 1-5.5.6-5.2 4.8-22.7 6.6-27.2.6-1.5 1.2-3.5 1.4-4.3 1.7-7.4 17-38 21.6-43.4.6-.6 3.2-4.2 5.9-7.9 5.9-8.2 7-9.4 19.1-21.6 16-16.2 35.9-29.9 56.8-39.2 10.3-4.5 20.5-8.3 25.2-9.3 1.3-.3 6-1.4 10.4-2.5s10.4-2.2 13.4-2.6c3-.4 6.3-.9 7.5-1.2 1.2-.3 24.7-.8 52.4-1l50.3-.5-.5 2.9c-.2 1.5-.7 4.8-1.1 7.3-.4 2.5-1.8 9-3.2 14.5-1.3 5.5-2.6 10.7-2.8 11.6-2.1 10.2-22.1 54.9-24.6 54.9-.5 0-.9.5-.9 1.1 0 .5-1.9 3.8-4.2 7.2-11.9 17.8-31.4 38.9-47.7 51.5-4.7 3.6-8.8 6.9-9.1 7.2-1.7 2-28.1 17.6-34 20-1.4.6-4.3 1.9-6.5 3-7.1 3.3-11.5 4.9-11.5 4.2 0-.4-.4-.2-.8.3-.8 1.2-18.2 6.7-28.7 9.1-11.9 2.8-15.7 4.5-21 9.9-6.1 6.1-8.5 10.8-9 17.9-1 13.9 7.1 26.2 20 30.4 7.3 2.4 11.8 2.2 26-1.3 13.1-3.2 12.6-3 14.5-3.8.8-.3 5.3-1.8 10-3.3 18.6-6 42-16.9 60.3-28.3 21-13 43.2-31.6 60.2-50.2 9.7-10.7 11.5-12.9 11.5-13.8 0-.6.8-1.6 1.8-2.3 1-.7 3.3-3.6 5.2-6.3 1.9-2.8 4.2-5.9 5.2-6.9 1-1.1 1.8-2.6 1.8-3.3 0-.7.3-1.3.8-1.3.4 0 1.8-2 3.2-4.5 1.4-2.5 2.8-4.5 3.2-4.5.5 0 .8-.4.8-.9 0-.4 2.2-4.6 4.8-9.2 7.6-13.3 17.3-34.4 19.9-43.4.1-.6 1.6-5 3.3-9.8 1.6-4.9 3.2-9.8 3.5-11 .3-1.2 1.8-8.1 3.5-15.2l3-13V254l-2.7-.1c-1.6-.1-3.2 0-3.8.1-.5.1-5.7.1-11.5 0s-11.1-.2-11.7-.1c-2.7.2-6.2.2-60.3.2-30.5 0-58.2.1-61.5.4-12 .8-19.1 1.5-21.5 2-1.4.3-4.1.7-6 1-1.9.3-4.6.7-6 1-6.4 1.4-7.7 1.6-10 2.1-3.5.7-4.4.9-14.5 4-17.6 5.3-36.3 13.2-50.7 21.5-4 2.3-8.2 4.7-9.3 5.3-11.8 6.6-30.6 21.7-46.4 37.3-7.9 7.9-14.4 14.3-14.5 14.3-.1 0-.1-6.9-.2-15.3-.2-33-3.1-52.6-12.8-84.2-.2-.6-.6-1.9-1.1-3-.4-1.1-2.1-5.6-3.7-10s-3.8-9.6-4.8-11.5c-1-1.9-3.7-7.3-6-12-5.1-10-6.3-12.3-7-13-.3-.3-2.5-3.6-4.9-7.4-4.2-6.7-10.6-15.6-14.6-20.5-1.1-1.3-3.7-4.4-5.9-7-11.9-14.3-24.1-25.4-47.1-42.9-3.8-2.9-18.6-11.8-26.5-16-9-4.7-27.9-13.2-30.4-13.6-.6-.1-1.5-.4-2.1-.8-.5-.3-4.1-1.6-8-2.8-8-2.5-7.9-2.4-16-4.5-3.3-.8-7.1-1.8-8.5-2.2-1.4-.4-44.7-.9-96.3-1L-.1 75l.4 40.2z"/></svg>